<?xml version="1.0" encoding="UTF-8"?>
<level>
  <owner>Fistachka</owner>
  <repo>time</repo>
  <version>v1.0.0</version>
  <next number="1" owner="fistachka" repo="deer"/>
  <readme>
    <ru>b4daac289c97f32d4c8316110c38b41fb52c82aecdb0b4f825eaabff57d6d952</ru>
    <en>6705ede5a5bd0293bc14dfaac0ae1937bbb968eb772ebd05a626533e3b58b0aa</en>
  </readme>
  <license>b1b99f5538d1fd3702219bff50c665196dfa42f6ee755c37fe41a6178d6bc6e5</license>
  <exercise number="1">
    <scale>major</scale>
    <bpm>80</bpm>
    <lowestNote>1</lowestNote>
    <tonalities>3</tonalities>
    <video name="1t.mp4" size="284575" type="video/mp4" volume="0.5">5495abebb4a12a4562faadce3a66b1e73f1a491a67a73421665e7c7e0910b190</video>
    <notes>
      <note number="1" values="1,18" ticks="46" durationTicks="51" ppq="96" velocity="0.843"/>
      <note number="2" values="1,18" ticks="120" durationTicks="49" ppq="96" velocity="0.913"/>
      <note number="3" values="1,18" ticks="238" durationTicks="50" ppq="96" velocity="0.913"/>
      <note number="4" values="1,18" ticks="300" durationTicks="60" ppq="96" velocity="0.913"/>
      <note number="5" values="1,18" ticks="383" durationTicks="51" ppq="96" velocity="0.913"/>
    </notes>
  </exercise>
  <exercise number="2">
    <scale>major</scale>
    <bpm>80</bpm>
    <lowestNote>1</lowestNote>
    <tonalities>3</tonalities>
    <video name="2t.mp4" size="320272" type="video/mp4" volume="0.5">5ee8ef19cbdc38dd8e618e99d019d5edb3ade0884c9ac9c466eb0746142a3df7</video>
    <notes>
      <note number="1" values="1,18" ticks="96" durationTicks="51" ppq="96" velocity="0.843"/>
      <note number="2" values="1,18" ticks="179" durationTicks="49" ppq="96" velocity="0.906"/>
      <note number="3" values="1,18" ticks="297" durationTicks="50" ppq="96" velocity="0.906"/>
      <note number="4" values="1,18" ticks="355" durationTicks="60" ppq="96" velocity="0.906"/>
      <note number="5" values="1,18" ticks="433" durationTicks="51" ppq="96" velocity="0.906"/>
    </notes>
  </exercise>
  <exercise number="3">
    <scale>major</scale>
    <bpm>80</bpm>
    <lowestNote>1</lowestNote>
    <tonalities>3</tonalities>
    <video name="3t.mp4" size="311271" type="video/mp4" volume="0.5">02a524949b343eb6ecb604444dcc236a311f7caddda58059cb3b8ecfdee88de7</video>
    <notes>
      <note number="1" values="1,18" ticks="96" durationTicks="51" ppq="96" velocity="0.843"/>
      <note number="2" values="1,18" ticks="180" durationTicks="49" ppq="96" velocity="0.906"/>
      <note number="3" values="1,18" ticks="288" durationTicks="50" ppq="96" velocity="0.906"/>
      <note number="4" values="1,18" ticks="352" durationTicks="60" ppq="96" velocity="0.906"/>
      <note number="5" values="1,18" ticks="433" durationTicks="51" ppq="96" velocity="0.906"/>
    </notes>
  </exercise>
  <exercise number="4">
    <scale>major</scale>
    <bpm>80</bpm>
    <lowestNote>1</lowestNote>
    <tonalities>3</tonalities>
    <video name="4t.mp4" size="334526" type="video/mp4" volume="0.5">158313784111114f75e1492eb715a06188f05ff9344b19abfb22a0327f4f2972</video>
    <notes>
      <note number="1" values="1,18" ticks="86" durationTicks="51" ppq="96" velocity="0.843"/>
      <note number="2" values="1,18" ticks="168" durationTicks="49" ppq="96" velocity="0.906"/>
      <note number="3" values="1,18" ticks="286" durationTicks="50" ppq="96" velocity="0.906"/>
      <note number="4" values="1,18" ticks="348" durationTicks="60" ppq="96" velocity="0.906"/>
      <note number="5" values="1,18" ticks="431" durationTicks="51" ppq="96" velocity="0.906"/>
    </notes>
  </exercise>
  <exercise number="5">
    <scale>major</scale>
    <bpm>80</bpm>
    <lowestNote>1</lowestNote>
    <tonalities>3</tonalities>
    <video name="5t.mp4" size="275634" type="video/mp4" volume="0.5">c9616640d1e75090483f7fba7c893e38470de7ea9d40a3c36c4ee320c8c72656</video>
    <notes>
      <note number="1" values="1,18" ticks="41" durationTicks="51" ppq="96" velocity="0.843"/>
      <note number="2" values="1,18" ticks="120" durationTicks="49" ppq="96" velocity="0.906"/>
      <note number="3" values="1,18" ticks="238" durationTicks="50" ppq="96" velocity="0.906"/>
      <note number="4" values="1,18" ticks="300" durationTicks="60" ppq="96" velocity="0.906"/>
      <note number="5" values="1,18" ticks="383" durationTicks="51" ppq="96" velocity="0.906"/>
    </notes>
  </exercise>
  <exercise number="6">
    <scale>major</scale>
    <bpm>80</bpm>
    <lowestNote>1</lowestNote>
    <tonalities>3</tonalities>
    <video name="6t.mp4" size="325692" type="video/mp4" volume="0.5">1bb6c9944aaaed44c7d8d488d43b232a2e2094666f476d0448f36a3ad8c07c39</video>
    <notes>
      <note number="1" values="1,18" ticks="96" durationTicks="51" ppq="96" velocity="0.843"/>
      <note number="2" values="1,18" ticks="176" durationTicks="49" ppq="96" velocity="0.906"/>
      <note number="3" values="1" ticks="293" durationTicks="50" ppq="96" velocity="0.906"/>
      <note number="4" values="1,18" ticks="350" durationTicks="60" ppq="96" velocity="0.906"/>
      <note number="5" values="1,18" ticks="433" durationTicks="51" ppq="96" velocity="0.906"/>
    </notes>
  </exercise>
  <exercise number="7">
    <scale>major</scale>
    <bpm>80</bpm>
    <lowestNote>1</lowestNote>
    <tonalities>3</tonalities>
    <video name="7t.mp4" size="326833" type="video/mp4" volume="0.5">b5c2ff89665b4a3a6cd46c28f8cdde11b0d2b64ed659b938d6e99546d72b7a20</video>
    <notes>
      <note number="1" values="1,18" ticks="105" durationTicks="51" ppq="96" velocity="0.843"/>
      <note number="2" values="1,18" ticks="192" durationTicks="49" ppq="96" velocity="0.906"/>
      <note number="3" values="1,18" ticks="300" durationTicks="50" ppq="96" velocity="0.906"/>
      <note number="4" values="1,18" ticks="361" durationTicks="60" ppq="96" velocity="0.906"/>
      <note number="5" values="1,18" ticks="443" durationTicks="51" ppq="96" velocity="0.906"/>
    </notes>
  </exercise>
  <exercise number="8">
    <scale>major</scale>
    <bpm>80</bpm>
    <lowestNote>1</lowestNote>
    <tonalities>3</tonalities>
    <video name="8t.mp4" size="337401" type="video/mp4" volume="0.5">554329b9e6b18bfd7d41b43569a9e82daa485ea61e07f01dd8b425fb15e11823</video>
    <notes>
      <note number="1" values="1,18" ticks="74" durationTicks="51" ppq="96" velocity="0.843"/>
      <note number="2" values="1,18" ticks="155" durationTicks="49" ppq="96" velocity="0.906"/>
      <note number="3" values="1,18" ticks="272" durationTicks="50" ppq="96" velocity="0.906"/>
      <note number="4" values="1,18" ticks="328" durationTicks="60" ppq="96" velocity="0.906"/>
      <note number="5" values="1,18" ticks="411" durationTicks="51" ppq="96" velocity="0.906"/>
    </notes>
  </exercise>
  <exercise number="9">
    <scale>major</scale>
    <bpm>80</bpm>
    <lowestNote>1</lowestNote>
    <tonalities>3</tonalities>
    <video name="9t.mp4" size="276926" type="video/mp4" volume="0.5">4ed58b6c9c4f4d844902a87cf38400f9049cf9c8220e75494807528766675144</video>
    <notes>
      <note number="1" values="1,18" ticks="46" durationTicks="51" ppq="96" velocity="0.843"/>
      <note number="2" values="1,18" ticks="126" durationTicks="49" ppq="96" velocity="0.906"/>
      <note number="3" values="1,18" ticks="242" durationTicks="50" ppq="96" velocity="0.906"/>
      <note number="4" values="1,18" ticks="300" durationTicks="60" ppq="96" velocity="0.906"/>
      <note number="5" values="1,18" ticks="383" durationTicks="51" ppq="96" velocity="0.906"/>
    </notes>
  </exercise>
  <exercise number="10">
    <scale>major</scale>
    <bpm>80</bpm>
    <lowestNote>1</lowestNote>
    <tonalities>3</tonalities>
    <video name="10t.mp4" size="315392" type="video/mp4" volume="0.5">6a272f49ec8029b5abb21d47e4f2b5ddf67ef03ba007e16b1864b9de06729046</video>
    <notes>
      <note number="1" values="1,18" ticks="96" durationTicks="51" ppq="96" velocity="0.843"/>
      <note number="2" values="1,18" ticks="178" durationTicks="49" ppq="96" velocity="0.906"/>
      <note number="3" values="1,18" ticks="293" durationTicks="50" ppq="96" velocity="0.906"/>
      <note number="4" values="1,18" ticks="350" durationTicks="60" ppq="96" velocity="0.906"/>
      <note number="5" values="1,18" ticks="433" durationTicks="51" ppq="96" velocity="0.906"/>
    </notes>
  </exercise>
  <exercise number="11">
    <scale>major</scale>
    <bpm>80</bpm>
    <lowestNote>1</lowestNote>
    <tonalities>3</tonalities>
    <video name="11,1t.mp4" size="322712" type="video/mp4" volume="0.5">ee52a1a6a2f32dc0009e2fcf9cd2f408d73a1014cb4afcc183193db7c0818fd3</video>
    <notes>
      <note number="1" values="1,18" ticks="96" durationTicks="51" ppq="96" velocity="0.843"/>
      <note number="2" values="1,18" ticks="176" durationTicks="49" ppq="96" velocity="0.906"/>
      <note number="3" values="1,18" ticks="288" durationTicks="50" ppq="96" velocity="0.906"/>
      <note number="4" values="1,18" ticks="350" durationTicks="60" ppq="96" velocity="0.906"/>
      <note number="5" values="1,18" ticks="429" durationTicks="51" ppq="96" velocity="0.906"/>
    </notes>
  </exercise>
  <exercise number="12">
    <scale>major</scale>
    <bpm>80</bpm>
    <lowestNote>1</lowestNote>
    <tonalities>3</tonalities>
    <video name="12t.mp4" size="339982" type="video/mp4" volume="0.5">fa8e1517b349b13f1813e4eb9b27c4c4ccfd1d88df90c9d2954e7f05854dd20a</video>
    <notes>
      <note number="1" values="1,18" ticks="87" durationTicks="51" ppq="96" velocity="0.843"/>
      <note number="2" values="1,18" ticks="170" durationTicks="49" ppq="96" velocity="0.906"/>
      <note number="3" values="1,18" ticks="288" durationTicks="50" ppq="96" velocity="0.906"/>
      <note number="4" values="1,18" ticks="350" durationTicks="60" ppq="96" velocity="0.906"/>
      <note number="5" values="1,18" ticks="433" durationTicks="51" ppq="96" velocity="0.906"/>
    </notes>
  </exercise>
</level>
